<svg version="1.1" id="Layer_1" xmlns="http://www.w3.org/2000/svg" xmlns:xlink="http://www.w3.org/1999/xlink" x="0px" y="0px"
     width="100%" viewBox="0 0 1024 1024" enable-background="new 0 0 1024 1024" xml:space="preserve">
<path fill="#FFFFFF" opacity="1.000000" stroke="none"
      d="
M656.945190,703.000000
	C656.937805,687.502258 656.927612,672.504456 656.924866,657.506714
	C656.923706,651.490906 657.402771,651.024170 663.522705,651.014709
	C670.021667,651.004578 676.521179,651.044495 683.019470,650.976135
	C686.622864,650.938171 688.102844,652.288086 687.672241,656.142883
	C687.175110,660.593140 687.204834,665.114807 687.200867,669.605652
	C687.168701,705.600342 687.176880,741.595093 687.186646,777.589783
	C687.189148,786.851440 688.274780,787.906311 697.531616,787.906067
	C752.856812,787.904480 808.181946,787.904785 863.507141,787.905273
	C872.612793,787.905396 872.998718,787.505676 872.998535,778.251465
	C872.996338,669.767456 872.996094,561.283386 872.998291,452.799347
	C872.998535,443.362671 872.674438,443.043762 863.100403,443.043762
	C737.618896,443.043610 612.137207,443.113708 486.656189,442.852966
	C479.246277,442.837585 475.926147,446.493530 471.944885,451.544861
	C463.730286,461.967316 455.335083,472.613892 439.910065,472.244873
	C438.120911,472.202087 436.028809,473.174072 434.541229,474.292725
	C429.430878,478.135742 425.622498,478.158569 420.654388,474.449127
	C419.041351,473.244751 416.731171,472.104218 414.857635,472.269501
	C406.859131,472.975189 400.451904,469.364410 395.105377,464.436005
	C389.420135,459.195343 384.577118,452.980591 379.799774,446.853241
	C378.408966,445.069366 378.611389,442.094788 377.893402,439.723572
	C376.625366,435.535980 374.731567,431.473938 374.007416,427.205383
	C373.407043,423.666290 373.716339,419.833679 374.362885,416.265228
	C374.903320,413.282379 377.367279,410.535095 377.509003,407.612152
	C378.205597,393.248413 388.420624,385.641602 397.948914,377.354919
	C402.947998,373.007233 408.723297,371.969543 415.012024,371.715424
	C416.999298,371.635162 419.156219,370.533325 420.847595,369.346283
	C425.568939,366.032898 429.432739,366.064941 434.037659,369.156464
	C436.122528,370.556183 438.870667,371.792572 441.282806,371.730865
	C449.650238,371.516815 456.020569,375.544891 461.503571,380.962341
	C466.786346,386.182037 471.188934,392.283905 476.344299,397.646301
	C477.964325,399.331390 480.676208,400.376709 483.054718,400.817749
	C485.954712,401.355560 489.030121,400.948151 492.029663,400.948120
	C621.677246,400.945709 751.325317,401.088013 880.971680,400.686737
	C892.273560,400.651733 904.251160,412.690857 904.220520,424.042725
	C903.865540,555.355774 903.998169,686.670105 903.987183,817.984131
	C903.986023,831.784668 894.501892,841.119263 880.653931,841.117798
	C813.497131,841.110657 746.340393,841.115112 679.183594,841.118896
	C666.735596,841.119568 656.937866,831.383911 656.937805,818.980896
	C656.937622,780.487244 656.942444,741.993652 656.945190,703.000000
M804.341797,815.301636
	C804.536499,811.145508 804.243896,807.560181 798.552185,807.623108
	C786.399170,807.757507 774.243286,807.716736 762.089355,807.637695
	C757.156311,807.605591 756.489136,810.601868 756.476868,814.554138
	C756.464417,818.573242 757.307678,821.418823 762.185669,821.380981
	C774.339417,821.286865 786.494568,821.317139 798.648865,821.368958
	C802.284729,821.384460 804.374146,819.961975 804.341797,815.301636
z" />
<path fill="#FFFFFF" opacity="1.000000" stroke="none"
      d="
M141.244324,625.834839
	C139.840088,624.208435 138.743835,621.798340 136.973801,621.102722
	C131.663925,619.015869 128.865265,615.127869 126.005028,610.402283
	C123.790955,606.744324 122.691711,603.459167 122.693306,599.350159
	C122.739105,481.232147 122.714020,363.114136 122.760468,244.996155
	C122.764168,235.572006 127.731949,229.453949 135.214035,223.697403
	C142.053711,218.435150 148.957169,218.908951 156.298279,218.908218
	C339.389496,218.889923 522.480713,218.873230 705.571899,218.940369
	C715.814331,218.944122 722.780579,224.050095 728.738525,232.681946
	C733.142517,239.062378 733.102051,245.198196 733.111694,251.899902
	C733.170227,292.715973 733.202515,333.532043 733.322998,374.838013
	C733.167419,375.576141 732.932434,375.824402 732.080688,376.066315
	C730.322693,375.947815 729.181458,375.835632 727.797363,375.455994
	C717.393494,375.045105 707.232666,374.891296 697.071167,374.799896
	C696.703979,374.796570 696.331360,375.408112 695.536133,375.740753
	C693.993591,375.932983 692.876160,376.117554 691.758789,376.302124
	C691.479736,376.118042 691.220032,375.909882 690.816650,375.487854
	C690.751892,347.308258 690.855530,319.318420 690.945068,291.328491
	C690.970154,283.496643 690.991028,275.664459 690.944702,267.832825
	C690.909119,261.822784 690.233215,261.159058 684.406006,261.066193
	C681.907104,261.026367 679.407043,261.063690 676.907471,261.063690
	C509.104553,261.062195 341.301666,261.060516 173.498749,261.058533
	C164.595596,261.058411 164.149246,261.498413 164.149216,270.334259
	C164.148804,371.482574 164.148560,472.630920 164.149323,573.779236
	C164.149399,582.398315 164.670547,582.929749 173.123718,582.929749
	C357.923553,582.929993 542.723389,582.929321 727.523193,582.928772
	C736.374084,582.928711 736.809204,582.494202 736.808533,573.600586
	C736.807556,560.936218 736.768555,548.271790 736.824524,535.607666
	C736.837036,532.781616 736.540710,529.357727 741.924377,531.098511
	C747.330444,535.295105 752.107910,539.231567 756.995239,543.483276
	C758.982727,546.011292 759.869202,550.114197 764.253418,547.546814
	C765.354248,548.222656 766.455078,548.898438 767.583496,550.144043
	C768.758118,551.792175 769.905212,552.870422 771.384521,554.013550
	C772.385254,554.150208 773.053772,554.221985 773.722351,554.293762
	C773.722351,554.293762 773.659668,554.544312 773.572144,554.929199
	C774.657715,556.542175 775.830688,557.770264 777.255554,559.117065
	C777.999939,559.495483 778.492493,559.755066 779.067383,560.347290
	C782.779053,565.931763 787.742981,569.306030 794.070190,571.346252
	C797.395081,573.522095 800.473206,575.461243 803.551270,577.400391
	C803.551270,577.400391 803.531860,577.722656 803.474243,578.125549
	C804.581909,579.715698 805.747314,580.902893 806.954834,582.064697
	C806.996948,582.039246 806.921021,582.105469 807.021118,582.427490
	C809.185181,585.598022 810.806335,589.061279 815.586243,588.701233
	C820.772400,592.689636 825.754395,596.431152 830.421814,600.530884
	C832.954773,602.755798 832.665771,605.550598 830.167419,607.857788
	C827.855713,609.992615 825.425354,611.998901 822.718262,614.092896
	C821.589844,614.745911 820.790405,615.367676 819.815125,616.238770
	C818.761597,617.327271 817.883911,618.166382 816.617920,618.999329
	C813.124573,621.289001 810.019531,623.584839 806.634644,626.066223
	C802.587280,629.523132 798.819641,632.794617 794.671021,636.061707
	C790.554077,638.734253 786.818054,641.411133 782.879761,644.354858
	C780.706238,646.953613 778.735046,649.285461 776.763916,651.617371
	C776.699951,651.892151 776.550232,652.108093 775.989258,652.175171
	C774.724243,652.997925 773.784668,653.910706 772.845093,654.823486
	C772.176819,655.064819 771.508545,655.306152 770.382568,655.326172
	C767.138977,656.565369 763.779968,657.468750 761.696045,659.611877
	C758.222412,663.184448 751.979797,663.934509 750.978882,669.984009
	C750.294800,670.411133 749.610657,670.838196 748.259155,671.333252
	C746.497498,673.076843 745.403259,674.752502 744.309021,676.428101
	C744.309021,676.428101 744.248962,676.815796 744.184570,677.001709
	C743.085938,677.741211 742.051697,678.294800 740.818787,679.072388
	C740.620178,679.296509 740.388245,679.310364 740.097534,679.120972
	C738.572632,678.263489 737.338501,677.595398 736.104370,676.927246
	C736.069824,661.263855 736.035278,645.600403 736.105957,629.268555
	C735.795715,628.079041 735.380310,627.557861 734.964844,627.036743
	C732.871521,626.632568 730.778320,625.875916 728.684814,625.874939
	C648.432800,625.836426 568.180847,625.867249 487.252258,625.795227
	C486.043335,626.126404 485.511017,626.551208 484.978729,626.976074
	C484.618042,633.684204 484.257324,640.392273 483.894897,647.776367
	C483.893158,648.452271 483.868378,648.866272 483.868378,648.866272
	C483.841461,650.625549 483.814545,652.384888 483.633972,654.947510
	C482.516235,662.960022 482.079132,670.025024 488.787415,675.133545
	C488.861145,676.163940 488.934875,677.194275 488.830505,678.916260
	C488.277191,684.145569 488.200806,688.536255 493.825134,690.122437
	C494.203491,690.871704 494.581848,691.620911 494.839325,692.958740
	C494.730194,699.299561 507.648956,713.373413 513.283997,713.753601
	C513.600952,713.775024 513.929199,713.628845 514.252197,713.560669
	C516.281006,714.972107 518.309753,716.383484 520.742859,718.239868
	C522.098450,718.774963 523.049805,718.865051 524.001099,718.955139
	C524.719604,719.008423 525.438171,719.061707 526.639771,719.463501
	C529.595337,724.109070 532.931091,726.271118 537.978088,724.201538
	C539.979553,724.237732 541.981079,724.273926 544.590332,724.576172
	C546.465393,724.884583 547.732788,724.926941 549.312256,725.005615
	C550.039856,725.094971 550.455322,725.148132 551.027344,725.495911
	C556.505310,731.015442 570.345276,732.981506 577.582520,729.502319
	C578.745728,729.567749 579.520874,729.616333 580.545471,729.761292
	C581.845337,729.633789 582.895691,729.409912 583.946106,729.185974
	C594.879578,728.963135 605.812988,728.740295 617.280029,728.864746
	C618.542542,731.142639 619.271484,733.073364 620.026245,735.271973
	C620.079834,735.717346 620.107544,735.894714 620.099426,736.534973
	C619.927429,745.550476 619.791138,754.103027 619.654846,762.655579
	C616.854553,762.930054 614.054199,763.444336 611.253906,763.444641
	C488.497223,763.456726 365.740540,763.435303 242.983917,763.319275
	C240.231964,763.316650 237.481110,762.175964 234.906921,761.052063
	C235.354416,752.755676 235.886154,744.970398 235.798141,737.192139
	C235.744354,732.439697 237.334579,730.693604 242.160126,730.753235
	C257.818542,730.946716 273.482391,730.891968 289.141418,730.704407
	C292.925812,730.659119 297.519409,730.911194 300.307037,728.968750
	C306.046997,724.969238 312.427612,726.207092 318.393127,724.707520
	C324.753448,723.108704 330.788422,720.214844 336.961456,717.875977
	C337.101654,717.822815 337.173859,717.609192 337.311737,717.528137
	C339.497162,716.243713 341.689117,714.970398 343.877350,713.690674
	C344.998169,713.035217 346.317566,712.572083 347.197357,711.677795
	C350.696930,708.120544 354.208221,704.552917 357.406311,700.730652
	C358.919708,698.921814 359.724548,696.523560 360.872192,694.404114
	C361.721924,692.834778 362.708191,691.331116 363.452850,689.714966
	C364.648499,687.120056 366.396393,684.519714 366.641663,681.806885
	C367.021149,677.609131 366.862946,673.601013 370.424072,670.410278
	C371.447632,669.493225 371.716614,667.385681 371.780212,665.801819
	C372.194061,655.494812 372.568115,645.183472 372.734100,634.869934
	C372.881470,625.710632 372.196411,625.101624 363.277008,625.100586
	C291.802216,625.092285 220.327423,625.091187 148.852646,625.127686
	C146.888626,625.128723 144.924820,625.575867 142.673920,625.808716
	C142.006058,625.813171 141.625198,625.823975 141.244324,625.834839
z" />
</svg>